HIERARCHY
ROOT Hips
{
	OFFSET 0.000000 0.000000 0.000000 
	CHANNELS 6 Xposition Yposition Zposition Yrotation Zrotation Xrotation 
	JOINT Lumbar
	{
		OFFSET 0.000000 0.000000 0.000000 
		CHANNELS 3 Zrotation Xrotation Yrotation
		JOINT Neck
		{
			OFFSET 0.000000 0.445665 0.000000 
			CHANNELS 3 Zrotation Xrotation Yrotation
			End Site
			{
				OFFSET 0.000000 0.227535 0.000000 
			}
		}
		JOINT RightShoulder
		{
			OFFSET 0.019635 0.377685 0.194865 
			CHANNELS 3 Zrotation Xrotation Yrotation
			JOINT RightElbow
			{
				OFFSET 0.000000 -0.243375 0.000000 
				CHANNELS 2 Zrotation Yrotation
				JOINT RightWrist
				{
					OFFSET 0.000000 -0.264825 0.000000 
					CHANNELS 2 Zrotation Xrotation
					End Site
					{
						OFFSET 0.006600 -0.176220 0.000990 
					}
				}
			}
		}
		JOINT LeftShoulder
		{
			OFFSET 0.019635 0.377685 -0.194865 
			CHANNELS 3 Zrotation Xrotation Yrotation
			JOINT LeftElbow
			{
				OFFSET 0.000000 -0.243375 0.000000 
				CHANNELS 2 Zrotation Yrotation
				JOINT LeftWrist
				{
					OFFSET 0.000000 -0.264825 0.000000 
					CHANNELS 2 Zrotation Xrotation
					End Site
					{
						OFFSET 0.006600 -0.176220 -0.000990 
					}
				}
			}
		}
	}
	JOINT RightHip
	{
		OFFSET 0.052140 -0.069960 0.075570 
		CHANNELS 3 Zrotation Xrotation Yrotation
		JOINT RightKnee
		{
			OFFSET 0.000000 -0.402270 0.000000 
			CHANNELS 1 Zrotation
			JOINT RightAnkle
			{
				OFFSET 0.000000 -0.404085 0.000000 
				CHANNELS 3 Zrotation Xrotation Yrotation
				End Site
				{
					OFFSET 0.204105 -0.089430 0.008415 
				}
			}
		}
	}
	JOINT LeftHip
	{
		OFFSET 0.052140 -0.069960 -0.075570 
		CHANNELS 3 Zrotation Xrotation Yrotation
		JOINT LeftKnee
		{
			OFFSET 0.000000 -0.402270 0.000000 
			CHANNELS 1 Zrotation
			JOINT LeftAnkle
			{
				OFFSET 0.000000 -0.404085 0.000000 
				CHANNELS 3 Zrotation Xrotation Yrotation
				End Site
				{
					OFFSET 0.204105 -0.089430 -0.008415 
				}
			}
		}
	}
}
MOTION
Frames: 33
Frame Time: 0.02
-0.00212 0.00063 -0.00178 -179.71465 -31.35178 -2.38431 43.11825 3.74483 -3.86948 -7.88976 -9.26439 -1.07713 -22.3432 -10.03101 -5.16086 38.87856 129.29635 14.51822 9.4943 -28.07658 12.92268 -5.90673 41.80929 -93.88706 12.4188 -0.12452 32.04819 -0.78505 -9.36628 -19.7076 -7.98498 -3.2763 -3.90346 34.51428 8.75229 10.71061 -26.52133 -8.48452 3.39393 3.9792
-0.00162 0.00065 -0.00222 -179.79479 -31.57567 -2.4027 43.28216 3.5155 -3.91926 -8.06763 -8.15456 -1.08021 -22.23486 -10.16454 -4.38754 38.5915 125.23286 13.77427 8.51478 -27.75463 13.04948 -5.56011 41.90444 -94.01947 12.56361 -0.12981 32.37061 -0.74806 -9.33303 -19.75838 -7.98695 -3.28343 -3.9057 34.83935 8.78365 10.68558 -26.61238 -8.49892 3.39718 3.98206
-0.00112 0.00067 -0.00266 -179.87466 -31.79888 -2.42098 43.44551 3.28666 -3.96901 -8.24496 -7.0474 -1.08328 -22.12674 -10.29752 -3.61684 38.30505 121.18583 13.0332 7.53934 -27.43322 13.17584 -5.21417 41.999 -94.15146 12.70804 -0.13508 32.69205 -0.71143 -9.30055 -19.80904 -7.98886 -3.29047 -3.9079 35.16341 8.8149 10.66089 -26.70309 -8.51324 3.40039 3.98489
-0.00061 0.00069 -0.0031 -179.95456 -32.02209 -2.43931 43.60891 3.05798 -4.01866 -8.42229 -5.94086 -1.08634 -22.01871 -10.4306 -2.84596 38.01881 117.13579 12.29169 6.56309 -27.11219 13.30225 -4.86854 42.0938 -94.28346 12.85242 -0.14035 33.01348 -0.6746 -9.26752 -19.85967 -7.99082 -3.29757 -3.91012 35.48748 8.84618 10.63598 -26.79384 -8.52759 3.40363 3.98774
-0.00011 0.00071 -0.00354 -180.03473 -32.24598 -2.45778 43.7729 2.82891 -4.06829 -8.60017 -4.83196 -1.08941 -21.91052 -10.56434 -2.0723 37.73212 113.06702 11.54695 5.58216 -26.79081 13.4291 -4.52243 42.1893 -94.41591 12.99713 -0.14564 33.33588 -0.63732 -9.23343 -19.91042 -7.99287 -3.30479 -3.91241 35.81259 8.87756 10.61062 -26.88495 -8.54205 3.40692 3.99062
0.0004 0.00074 -0.00397 -180.11393 -32.46773 -2.47566 43.9349 2.6006 -4.11831 -8.77632 -3.72854 -1.09248 -21.80256 -10.69576 -1.30782 37.4462 109.06541 10.81356 4.61819 -26.46937 13.55438 -4.17688 42.28189 -94.54691 13.14099 -0.15086 33.65529 -0.60206 -9.20433 -19.96088 -7.9945 -3.31143 -3.91441 36.13443 8.90852 10.58736 -26.97481 -8.55606 3.40998 3.99335
0.0009 0.00076 -0.00442 -180.19505 -32.69354 -2.49471 44.10072 2.37095 -4.16747 -8.95575 -2.61526 -1.09555 -21.69424 -10.83154 -0.52594 37.15896 104.93552 10.05854 3.62181 -26.14839 13.68274 -3.8305 42.3802 -94.68066 13.2864 -0.15622 33.98034 -0.56276 -9.16532 -20.01186 -7.99695 -3.31922 -3.91699 36.46245 8.94033 10.5599 -27.06708 -8.57097 3.4135 3.99639
0.00141 0.00078 -0.00485 -180.2743 -32.91562 -2.51269 44.26301 2.14262 -4.21749 -9.13216 -1.51119 -1.09862 -21.58628 -10.96357 0.24031 36.87309 100.91944 9.32275 2.65413 -25.82702 13.80816 -3.48503 42.47332 -94.81191 13.4304 -0.16145 34.30023 -0.52721 -9.13527 -20.06237 -7.99867 -3.32598 -3.91904 36.78483 8.9713 10.53631 -27.15715 -8.58503 3.41658 3.99914
0.00191 0.0008 -0.00527 -180.35171 -33.13321 -2.5293 44.42105 1.91544 -4.26832 -9.30495 -0.41732 -1.10169 -21.47856 -11.08999 0.98607 36.58812 97.05931 8.6131 1.72599 -25.50482 13.93044 -3.13986 42.55973 -94.94001 13.57265 -0.16654 34.61378 -0.49618 -9.11697 -20.11228 -7.99941 -3.33137 -3.92041 37.10022 9.00149 10.51751 -27.24445 -8.5981 3.41918 4.00154
0.00242 0.00082 -0.00579 -180.44104 -33.37681 -2.55361 44.60378 1.68026 -4.31377 -9.49876 0.73846 -1.10474 -21.36884 -11.24563 1.84558 36.29564 92.35248 7.76097 0.58374 -25.1863 14.07215 -2.79052 42.68364 -95.08596 13.72489 -0.1725 34.96371 -0.43896 -9.03347 -20.16558 -8.00551 -3.34431 -3.92558 37.45553 9.0369 10.47135 -27.34747 -8.61704 3.42471 4.00597
0.00291 0.00085 -0.00608 -180.50435 -33.5654 -2.56178 44.73427 1.46286 -4.37101 -9.64811 1.7614 -1.10783 -21.26377 -11.34157 2.46772 36.02052 89.39958 7.20437 -0.11538 -24.86078 14.172 -2.45163 42.72917 -95.1944 13.8561 -0.17656 35.23695 -0.4371 -9.08594 -20.21177 -8.0005 -3.34151 -3.92283 37.72681 9.0608 10.48272 -27.41743 -8.62348 3.42398 4.00609
0.00329 0.00097 -0.00582 -180.50286 -33.60224 -2.52445 44.72082 1.28746 -4.45721 -9.67538 2.43519 -1.11109 -21.16757 -11.25571 2.40987 35.78033 91.58042 7.50972 0.48589 -24.50983 14.1631 -2.12828 42.55188 -95.19791 13.92869 -0.17595 35.29687 -0.58782 -9.52859 -20.23782 -7.96309 -3.29352 -3.8972 37.76332 9.05692 10.6558 -27.39492 -8.59628 3.40643 3.99445
0.00365 0.00111 -0.00532 -180.47406 -33.58375 -2.47121 44.65475 1.13127 -4.5558 -9.65808 2.97283 -1.1144 -21.07652 -11.11302 2.11835 35.55957 95.46753 8.10319 1.51765 -24.15329 14.11117 -1.81819 42.29772 -95.16413 13.98027 -0.17336 35.28007 -0.79401 -10.10469 -20.25677 -7.91491 -3.23008 -3.86382 37.716 9.04081 10.88632 -27.3395 -8.5564 3.3825 3.97846
0.00403 0.00123 -0.00487 -180.45345 -33.59138 -2.42596 44.6135 0.9706 -4.65102 -9.6612 3.56265 -1.11764 -20.98594 -11.00835 1.95321 35.33863 98.35854 8.53049 2.29581 -23.80303 14.07472 -1.5102 42.08325 -95.14872 14.0421 -0.17133 35.30057 -0.97438 -10.60846 -20.27947 -7.87289 -3.175 -3.83473 37.71009 9.02774 11.08756 -27.30031 -8.52191 3.36127 3.96445
0.00434 0.00137 -0.00464 -180.45052 -33.59569 -2.37719 44.56947 0.79165 -4.73701 -9.66335 4.19281 -1.12101 -20.88444 -10.85299 1.70489 35.08261 102.16593 9.10381 3.3147 -23.4358 14.05477 -1.16657 41.84686 -95.12721 14.10112 -0.17066 35.31166 -1.15744 -11.16146 -20.30028 -7.82543 -3.11422 -3.80238 37.69101 9.02508 11.30072 -27.25581 -8.48899 3.34094 3.95049
0.00481 0.00148 -0.00391 -180.4044 -33.59263 -2.33234 44.51734 0.65582 -4.84482 -9.65716 4.70708 -1.1242 -20.80571 -10.78861 1.57129 34.90251 104.49252 9.44541 3.94025 -23.10405 13.99103 -0.90204 41.64001 -95.10961 14.16079 -0.16674 35.32288 -1.34806 -11.64401 -20.32293 -7.78684 -3.06167 -3.77497 37.67824 8.99808 11.50467 -27.21441 -8.44975 3.31714 3.93532
0.00569 0.00154 -0.00191 -180.24514 -33.59318 -2.29945 44.46803 0.63002 -5.01286 -9.63745 4.93201 -1.12607 -20.79844 -10.99892 1.84002 34.94209 102.10541 9.0401 3.32107 -22.85963 13.81068 -0.83814 41.51576 -95.11186 14.22948 -0.15411 35.36531 -1.54565 -11.8945 -20.3566 -7.77455 -3.03574 -3.76314 37.71497 8.90441 11.65006 -27.19106 -8.39668 3.28624 3.91838
0.00674 0.00157 0.00059 -180.04366 -33.58646 -2.27165 44.4102 0.64766 -5.20192 -9.61117 5.04575 -1.12787 -20.8118 -11.30081 2.22731 35.05458 98.20806 8.39845 2.30123 -22.65363 13.58921 -0.85618 41.42724 -95.11942 14.29914 -0.13835 35.4088 -1.74897 -12.07016 -20.392 -7.77174 -3.01864 -3.75654 37.75912 8.78689 11.78644 -27.17174 -8.33766 3.25201 3.90032
0.00774 0.00161 0.00289 -179.86165 -33.576 -2.24328 44.34805 0.6484 -5.37928 -9.58878 5.21194 -1.13025 -20.80957 -11.55474 2.54148 35.12399 95.13645 7.88873 1.49926 -22.43757 13.39031 -0.84613 41.33402 -95.12453 14.36706 -0.12413 35.44331 -1.94994 -12.28346 -20.42334 -7.76511 -2.99741 -3.74747 37.79198 8.68224 11.94109 -27.14954 -8.28096 3.21856 3.88232
0.00865 0.00165 0.00507 -179.67671 -33.59261 -2.20678 44.31819 0.63826 -5.56585 -9.56092 5.36447 -1.13041 -20.83484 -11.83415 2.92769 35.23622 91.53266 7.28514 0.5602 -22.18894 13.17234 -0.79757 41.18931 -95.12824 14.43989 -0.10922 35.50898 -2.15192 -12.48683 -20.46656 -7.75592 -2.97608 -3.73845 37.85415 8.56964 12.04324 -27.13039 -8.2252 3.18749 3.86578
0.00978 0.00169 0.00763 -179.48917 -33.55274 -2.18892 44.22032 0.66028 -5.73843 -9.54362 5.52185 -1.13507 -20.80629 -12.08208 3.19633 35.27612 88.66049 6.81768 -0.19275 -22.01875 12.98636 -0.84897 41.16144 -95.13691 14.5028 -0.09518 35.51355 -2.35226 -12.69043 -20.48765 -7.75462 -2.95735 -3.73074 37.85962 8.46679 12.24518 -27.10659 -8.1665 3.15138 3.84633
0.01141 0.00173 0.01117 -179.29683 -33.35107 -2.21888 43.93145 0.76488 -5.8644 -9.55606 5.71116 -1.15295 -20.63587 -12.22875 3.10258 35.10196 88.13257 6.77795 -0.34797 -22.04365 12.8865 -1.15159 41.44592 -95.15606 14.5401 -0.08303 35.32869 -2.54806 -12.92076 -20.43127 -7.77144 -2.94284 -3.72488 37.69435 8.40808 12.78219 -27.06656 -8.09905 3.09666 3.81631
0.01326 0.00176 0.01507 -179.10514 -33.09445 -2.26792 43.57531 0.8992 -5.97623 -9.57974 5.91113 -1.17522 -20.40847 -12.33935 2.88995 34.8531 88.39098 6.88275 -0.30213 -22.14825 12.82277 -1.55215 41.84658 -95.18075 14.56717 -0.07214 35.08729 -2.74173 -13.15203 -20.35695 -7.79616 -2.93083 -3.72025 37.47448 8.35808 13.40935 -27.02238 -8.0293 3.03799 3.78393
0.01502 0.00179 0.0188 -178.91823 -32.86839 -2.30996 43.25418 1.01714 -6.09609 -9.59922 6.11304 -1.19492 -20.1992 -12.46142 2.73772 34.63431 88.31308 6.92426 -0.34046 -22.22458 12.75079 -1.91177 42.19653 -95.20417 14.59767 -0.06149 34.88454 -2.93488 -13.37678 -20.2996 -7.81818 -2.91839 -3.71546 37.28813 8.29654 13.95684 -26.98177 -7.96204 2.9848 3.7545
0.01672 0.00186 0.0226 -178.70756 -32.61878 -2.34533 42.91549 1.14955 -6.20913 -9.61475 6.28384 -1.21694 -20.02288 -12.6074 2.5596 34.42887 88.10281 6.94885 -0.42057 -22.26952 12.6429 -2.26192 42.54236 -95.22183 14.63315 -0.04719 34.62382 -3.13349 -13.62374 -20.19949 -7.83678 -2.90353 -3.70928 37.06525 8.26565 14.66578 -26.93396 -7.88845 2.91608 3.71716
0.01862 0.00184 0.02631 -178.54814 -32.40485 -2.39879 42.59561 1.25732 -6.33375 -9.64107 6.52156 -1.23531 -19.76484 -12.69387 2.40937 34.18392 88.36433 7.04448 -0.36368 -22.39721 12.61885 -2.65058 42.91952 -95.25356 14.65605 -0.04097 34.4745 -3.32144 -13.82687 -20.19119 -7.86428 -2.89388 -3.70607 36.90538 8.17396 15.06206 -26.90039 -7.82761 2.87861 3.69567
0.02096 0.00159 0.02974 -178.52124 -32.30688 -2.4997 42.36099 1.29814 -6.48501 -9.69647 6.95749 -1.24122 -19.28995 -12.62558 2.33556 33.79093 89.82695 7.31518 0.04851 -22.74201 12.81859 -3.15005 43.3907 -95.32001 14.64638 -0.05622 34.61204 -3.46908 -13.89769 -20.37994 -7.9141 -2.90063 -3.71198 36.93334 7.90722 14.55596 -26.90476 -7.80233 2.93025 3.71923
0.02351 0.00125 0.03305 -178.54772 -32.24622 -2.61773 42.14479 1.31137 -6.64996 -9.76214 7.4574 -1.24354 -18.73644 -12.49912 2.30046 33.37312 91.72694 7.65094 0.58847 -23.16497 13.10145 -3.67892 43.88137 -95.40387 14.62556 -0.08008 34.87017 -3.60794 -13.92653 -20.67259 -7.97264 -2.91206 -3.72058 37.02666 7.58036 13.7363 -26.92394 -7.79003 3.01307 3.75866
0.02602 0.00094 0.03637 -178.55583 -32.16562 -2.72649 41.90884 1.33153 -6.81432 -9.82162 7.91886 -1.24838 -18.22119 -12.39698 2.26457 33.00123 93.37556 7.94862 1.05503 -23.5475 13.34574 -4.1756 44.3409 -95.47785 14.60866 -0.09984 35.09572 -3.75852 -13.98255 -20.95812 -8.02735 -2.91956 -3.72709 37.08945 7.28404 13.0701 -26.93804 -7.77199 3.08053 3.79044
0.0283 0.00066 0.0399 -178.53926 -32.09483 -2.84223 41.71751 1.37641 -6.95444 -9.88729 8.4226 -1.24968 -17.69004 -12.29818 2.14727 32.47216 95.27586 8.28682 1.59408 -23.95631 13.59467 -4.7563 44.90336 -95.54827 14.59174 -0.11873 35.22525 -3.87727 -14.00549 -21.0756 -8.08174 -2.93462 -3.73727 37.15302 6.97314 12.35668 -26.94547 -7.75322 3.1532 3.82421
0.03111 0.00031 0.04294 -178.58651 -32.01429 -2.94721 41.43984 1.3629 -7.14845 -9.94315 8.85031 -1.25737 -17.17816 -12.18461 2.21827 32.27603 96.74187 8.55462 2.00869 -24.32446 13.85316 -5.16636 45.24856 -95.64531 14.57799 -0.14358 35.58441 -4.05918 -14.08594 -21.56567 -8.13882 -2.93519 -3.74049 37.23219 6.67985 11.67108 -26.96984 -7.73905 3.22206 3.85738
0.03533 -0.00023 0.04469 -178.79908 -31.88856 -3.01873 40.90893 1.19433 -7.48803 -9.96265 9.0787 -1.28428 -16.70442 -11.99858 2.73119 32.91719 96.93625 8.60898 2.05913 -24.59132 14.11784 -5.1075 45.04182 -95.68021 14.5269 -0.1644 36.54445 -4.42602 -14.34725 -23.07643 -8.20045 -2.89312 -3.72335 37.33022 6.43584 11.09368 -27.04186 -7.73471 3.27641 3.88712
0.04007 -0.00083 0.04593 -179.07346 -31.75375 -3.07872 40.29336 0.96797 -7.88121 -9.97322 9.2235 -1.31758 -16.25977 -11.80959 3.44508 33.91174 96.67051 8.59066 1.97749 -24.80935 14.38902 -4.87276 44.60706 -95.7646 14.48807 -0.19419 37.7309 -4.8546 -14.66544 -24.95311 -8.26442 -2.83653 -3.69918 37.44337 6.2142 10.56224 -27.12963 -7.73454 3.32524 3.91536
